<svg xmlns="http://www.w3.org/2000/svg" height="24" viewBox="0 -960 960 960" width="24"><path d="M200-80q-33 0-56.5-23.5T120-160v-560q0-33 23.5-56.5T200-800h40v-80h80v80h320v-80h80v80h40q33 0 56.5 23.5T840-720v560q0 33-23.5 56.5T760-80H200Zm280-400q-17 0-28.5-11.5T440-520q0-17 11.5-28.5T480-560q17 0 28.5 11.5T520-520q0 17-11.5 28.5T480-480Zm-160 0q-17 0-28.5-11.5T280-520q0-17 11.5-28.5T320-560q17 0 28.5 11.5T360-520q0 17-11.5 28.5T320-480Zm320 0q-17 0-28.5-11.5T600-520q0-17 11.5-28.5T640-560q17 0 28.5 11.5T680-520q0 17-11.5 28.5T640-480ZM480-320q-17 0-28.5-11.5T440-360q0-17 11.5-28.5T480-400q17 0 28.5 11.5T520-360q0 17-11.5 28.5T480-320Zm-160 0q-17 0-28.5-11.5T280-360q0-17 11.5-28.5T320-400q17 0 28.5 11.5T360-360q0 17-11.5 28.5T320-320Zm320 0q-17 0-28.5-11.5T600-360q0-17 11.5-28.5T640-400q17 0 28.5 11.5T680-360q0 17-11.5 28.5T640-320Z"/></svg>
